<svg width="18" height="16" viewBox="0 0 18 16" fill="none" xmlns="http://www.w3.org/2000/svg">
<path d="M2.33366 2.33341H4.83366L6.50033 0.666748H11.5003L13.167 2.33341H15.667C16.109 2.33341 16.5329 2.50901 16.8455 2.82157C17.1581 3.13413 17.3337 3.55805 17.3337 4.00008V14.0001C17.3337 14.4421 17.1581 14.866 16.8455 15.1786C16.5329 15.4912 16.109 15.6667 15.667 15.6667H2.33366C1.89163 15.6667 1.46771 15.4912 1.15515 15.1786C0.842587 14.866 0.666992 14.4421 0.666992 14.0001V4.00008C0.666992 3.55805 0.842587 3.13413 1.15515 2.82157C1.46771 2.50901 1.89163 2.33341 2.33366 2.33341ZM9.00033 4.83341C7.89526 4.83341 6.83545 5.2724 6.05405 6.0538C5.27265 6.8352 4.83366 7.89501 4.83366 9.00008C4.83366 10.1051 5.27265 11.165 6.05405 11.9464C6.83545 12.7278 7.89526 13.1667 9.00033 13.1667C10.1054 13.1667 11.1652 12.7278 11.9466 11.9464C12.728 11.165 13.167 10.1051 13.167 9.00008C13.167 7.89501 12.728 6.8352 11.9466 6.0538C11.1652 5.2724 10.1054 4.83341 9.00033 4.83341ZM9.00033 6.50008C9.66337 6.50008 10.2993 6.76347 10.7681 7.23231C11.2369 7.70115 11.5003 8.33704 11.5003 9.00008C11.5003 9.66312 11.2369 10.299 10.7681 10.7678C10.2993 11.2367 9.66337 11.5001 9.00033 11.5001C8.33728 11.5001 7.7014 11.2367 7.23256 10.7678C6.76372 10.299 6.50033 9.66312 6.50033 9.00008C6.50033 8.33704 6.76372 7.70115 7.23256 7.23231C7.7014 6.76347 8.33728 6.50008 9.00033 6.50008Z" fill="#9CA0A3"/>
</svg>
