<svg width="182" height="19" viewBox="0 0 182 19" fill="none" xmlns="http://www.w3.org/2000/svg">
<path d="M0.371102 0.637929C1.67159 0.637929 3.05697 0.700123 3.78619 0.703414C4.37622 0.703414 5.92745 0.637929 6.8166 0.637929C7.18352 0.637929 7.35858 0.679392 7.35858 0.845901C7.35858 1.01208 7.21379 1.05618 6.96765 1.05618C6.69583 1.05618 6.73697 1.08086 6.44146 1.13121C5.77904 1.24605 5.58127 1.64423 5.53487 2.46295C5.48749 3.21488 5.48749 3.87368 5.48749 7.43915V10.7249C5.48749 14.119 6.19466 15.5557 7.40235 16.5001C8.51658 17.3744 9.44324 17.4587 10.2959 17.4587C11.3844 17.4587 12.5582 17.1214 13.5451 16.1845C14.8989 14.891 14.9713 12.779 14.9713 10.3626V7.43521C14.9713 3.86775 14.9713 3.20896 14.9239 2.46131C14.8732 1.66101 14.6764 1.28356 13.8613 1.12002C13.6665 1.07526 13.398 1.05519 13.1282 1.05519C12.8577 1.05519 12.7073 1.01077 12.7073 0.845243C12.7073 0.681695 12.8804 0.636942 13.2236 0.636942C14.4803 0.636942 16.0345 0.699136 16.0549 0.702756C16.3481 0.702756 17.901 0.636942 18.8606 0.636942C19.2084 0.636942 19.3812 0.677418 19.3812 0.845243C19.3812 1.01077 19.2357 1.05519 18.9409 1.05519C18.6674 1.05519 18.674 1.07526 18.3788 1.11738C17.7131 1.2375 17.5186 1.6337 17.4663 2.45012C17.4183 3.2004 17.4183 3.86019 17.4183 7.42632V9.93976C17.4183 12.5411 17.1474 15.3089 15.0805 17.0013C13.3325 18.4331 11.4094 18.6986 9.8095 18.7088C8.50473 18.7088 5.27622 18.6743 3.4795 17.1247C2.22377 16.043 1.28921 14.3098 1.28921 10.9092V7.47897C1.28921 3.91152 1.31586 3.2593 1.28526 2.511C1.25663 1.84397 1.35404 1.4606 1.09506 1.20196C1.04701 1.14865 0.925586 1.08546 0.728143 1.05618C0.547813 1.03216 0.000569084 0.979833 0.000569084 0.822208C-0.0073286 0.735334 0.0644087 0.631348 0.377355 0.631348" fill="white"/>
<path d="M23.032 16.197C20.6673 14.2157 20.0404 11.6377 20.0404 9.40828C20.0404 7.84026 20.5462 5.12345 22.8632 3.09506C24.6026 1.57608 26.8976 0.656982 30.4936 0.656982C31.9935 0.656982 32.888 0.73925 33.9923 0.886673C34.9114 1.01238 35.6798 1.19896 36.4087 1.28222C36.6759 1.30295 36.7628 1.42799 36.7628 1.55304C36.7628 1.73469 36.6884 2.01308 36.6436 2.81766C36.5953 3.57715 36.6186 4.84144 36.5712 5.29589C36.5466 5.63944 36.4962 5.82668 36.279 5.83721C36.0898 5.83721 36.0372 5.65062 36.0372 5.33175C36.0138 4.61241 35.6979 3.81244 35.0957 3.21024C34.3 2.40731 33.0785 1.88935 30.8579 1.88935C28.7552 1.88935 27.8996 2.3902 26.837 3.31291C25.0709 4.85888 24.6125 7.04654 24.6125 9.26809C24.6125 14.7458 28.9852 17.4721 32.2134 17.4721C34.3629 17.4721 34.5254 17.429 35.4955 16.3671C35.9036 15.9337 36.1741 14.9758 36.2711 14.5582C36.3448 14.1949 36.3922 14.1025 36.5864 14.1025C36.7555 14.1025 36.7944 14.269 36.7944 14.4463C36.7944 14.7267 36.5104 16.7252 36.2682 17.5074C36.1471 17.9022 36.0487 18.0174 35.6416 18.1737C34.6742 18.5433 32.837 18.7048 31.2933 18.7048C28.0095 18.7118 25.2407 18.0247 23.0323 16.2026H23.033L23.032 16.197Z" fill="white"/>
<path d="M63.2552 1.10063C63.4401 0.660336 63.806 0.652109 63.8695 0.652109C64.0564 0.652109 64.3079 0.715949 64.5566 1.03679L71.1798 14.0913L77.6395 1.23259C77.8343 0.865018 78.1522 0.639276 78.3687 0.647173C78.6336 0.667905 78.911 0.917998 78.9725 1.35369L81.1819 15.6488C81.4031 17.1066 81.6413 17.7723 82.3679 17.981C83.0665 18.1893 83.2004 18.2511 83.5127 18.2574C83.7253 18.2574 83.9083 18.2778 83.9083 18.4203C83.9083 18.6065 83.6134 18.6753 83.2738 18.67C82.6706 18.67 79.3181 18.6012 78.3496 18.5282C77.7915 18.4808 77.6454 18.415 77.6454 18.2814C77.6454 18.1606 77.7428 18.0892 77.9143 18.0257C78.0571 17.9757 78.1301 17.6779 78.0327 17.0303L76.5756 6.84949H76.4844L71.1923 17.3521C70.6369 18.4413 70.4072 18.6101 70.0429 18.6012C69.7 18.6012 69.4831 18.2014 69.0968 17.5038C68.514 16.4452 66.5939 12.8994 66.3093 12.2555C66.0838 11.7701 64.6297 8.84859 63.78 7.11472L62.7724 16.2984C62.7191 16.7167 62.698 17.0184 62.698 17.386C62.698 17.8227 63.0107 18.0313 63.4273 18.135C63.8643 18.2182 64.1976 18.2386 64.4474 18.2386C64.6392 18.2386 64.8015 18.2797 64.8015 18.4025C64.8015 18.6062 64.583 18.6572 64.2239 18.6572C63.2025 18.6572 62.1093 18.5884 61.6746 18.5884C61.2123 18.5884 60.0477 18.6572 59.2704 18.6572C59.0289 18.6572 58.8325 18.6075 58.8325 18.4025C58.8325 18.2863 58.9815 18.2386 59.2224 18.2386C59.4182 18.2386 59.5762 18.2386 59.952 18.1731C60.6285 18.0366 60.7286 16.9595 60.85 16.1691L63.2552 1.10063Z" fill="white"/>
<path d="M44.9648 13.4181C44.7569 13.4658 44.2827 13.6359 43.9464 14.1374L43.019 16.1421C42.7792 16.7173 42.6284 17.2554 42.6284 17.5361C42.6284 17.953 42.8374 18.2436 43.5857 18.2521H43.9546C44.2488 18.2521 44.3087 18.2932 44.3087 18.44C44.3087 18.6256 44.1616 18.6694 43.8967 18.6684C43.1165 18.6684 42.0759 18.598 41.326 18.598C41.0561 18.598 39.7228 18.6684 38.466 18.6684C38.1472 18.6684 38.002 18.624 38.002 18.4384C38.002 18.3025 38.0994 18.2521 38.2923 18.2521C38.5114 18.2521 38.8524 18.2311 39.0465 18.2077C40.1604 18.0678 40.5076 17.0148 40.9923 15.8581L47.0804 1.32869C47.3756 0.659689 47.913 0.639616 48.0107 0.647843C48.2243 0.668245 48.4494 0.77256 48.7811 1.43399C49.405 2.68314 53.2373 12.1357 54.7991 15.6574C55.7202 17.7391 56.4241 18.0514 56.9446 18.1784C57.3096 18.2422 57.381 18.2422 57.6735 18.2422C57.8706 18.2422 57.9852 18.2626 57.9852 18.4285C57.9852 18.6141 57.7673 18.6582 56.8699 18.6582C55.9986 18.6582 54.2285 18.6582 52.2873 18.6138C51.8493 18.5871 51.5607 18.5871 51.5607 18.4272C51.5607 18.2903 51.6591 18.2413 51.9003 18.2192C52.0691 18.1722 52.2403 17.9632 52.1162 17.6881L50.4899 14.1391C50.4458 14.0222 49.8953 13.4987 49.5205 13.4256C49.5198 13.4319 45.1037 13.3914 44.9583 13.4121H44.9658L44.9648 13.4181ZM44.9467 11.8468C45.7977 11.9086 48.07 11.9086 49.2342 11.8339C49.4132 11.8218 49.5926 11.5661 49.4869 11.3314L47.4227 5.61845C47.3779 5.52565 47.3618 5.40686 47.2877 5.40686C47.2137 5.40686 47.1706 5.52335 47.1443 5.61516L44.7638 11.3367C44.6914 11.6046 44.6878 11.8359 44.9517 11.8468H44.9467Z" fill="white"/>
<path d="M94 17.729H95.243V10.6333C95.8644 10.8058 96.5636 10.8304 97.3663 10.8304C99.5156 10.8304 101.38 10.1899 102.493 8.98261C103.296 8.14493 103.711 7.08551 103.711 5.65652C103.711 4.27681 103.219 3.16812 102.364 2.40435C101.406 1.51739 99.8263 1 97.7547 1C96.2787 1 95.0099 1.14783 94 1.32029V17.729ZM95.243 2.18261C95.7091 2.08406 96.5636 1.98551 97.703 1.98551C100.474 1.98551 102.468 3.16812 102.468 5.77971C102.468 8.41594 100.603 9.84493 97.4699 9.84493C96.6154 9.84493 95.8385 9.79565 95.243 9.59855V2.18261Z" fill="white"/>
<path d="M115.663 11.6928C115.715 11.471 115.715 11.2986 115.715 10.9783C115.715 9.27826 114.938 5.63188 110.873 5.63188C107.662 5.63188 105.279 8.09565 105.279 12.0377C105.279 15.5116 107.506 17.9754 111.08 17.9754C113.255 17.9754 114.524 17.458 114.99 17.2116L114.679 16.3C113.98 16.6203 113.048 16.9652 111.235 16.9652C108.646 16.9652 106.496 15.4623 106.496 11.6928H115.663ZM106.548 10.7565C106.781 8.93333 107.972 6.61739 110.717 6.61739C113.721 6.61739 114.446 9.1058 114.42 10.7565H106.548Z" fill="white"/>
<path d="M118.857 17.729H120.1V11.2C120.1 10.8058 120.126 10.4116 120.204 10.0667C120.541 8.16957 121.758 6.76522 123.467 6.76522C123.7 6.76522 123.881 6.76522 124.062 6.81449V5.68116C123.907 5.65652 123.726 5.63188 123.544 5.63188C121.861 5.63188 120.566 6.81449 120.023 8.29275H119.945L119.893 5.9029H118.754C118.831 7.06087 118.857 8.26812 118.857 9.45072V17.729Z" fill="white"/>
<path d="M125.562 17.1623C126.391 17.6551 127.53 17.9754 128.721 17.9754C131.259 17.9754 132.916 16.6203 132.916 14.6C132.916 12.8014 131.725 11.8406 129.705 11.1014C128.022 10.4362 127.142 9.8942 127.142 8.66232C127.142 7.57826 127.97 6.61739 129.55 6.61739C130.793 6.61739 131.596 7.03623 132.036 7.33188L132.502 6.37101C131.88 5.95217 130.896 5.63188 129.757 5.63188C127.349 5.63188 125.925 7.13478 125.925 8.83478C125.925 10.2638 127.038 11.3232 129.084 12.0623C130.871 12.7522 131.699 13.442 131.699 14.7478C131.699 15.9797 130.767 16.9899 128.799 16.9899C127.685 16.9899 126.676 16.571 126.002 16.1768L125.562 17.1623Z" fill="white"/>
<path d="M141.023 5.63188C137.941 5.63188 135.144 7.87391 135.144 11.9145C135.144 15.6101 137.63 18 140.841 18C143.612 18 146.797 16.1029 146.797 11.6928C146.797 8.09565 144.467 5.63188 141.023 5.63188ZM140.997 6.61739C144.285 6.61739 145.554 9.59855 145.554 11.7667C145.554 14.7971 143.508 17.0145 140.919 17.0145C138.381 17.0145 136.387 14.7971 136.387 11.8406C136.387 9.3029 137.812 6.61739 140.997 6.61739Z" fill="white"/>
<path d="M149.962 17.729H151.205V10.4116C151.205 10.042 151.283 9.64783 151.36 9.35217C151.852 7.82464 153.354 6.64203 155.089 6.64203C157.653 6.64203 158.533 8.58841 158.533 10.7319V17.729H159.776V10.6333C159.776 6.19855 156.617 5.63188 155.426 5.63188C153.406 5.63188 151.826 6.71594 151.153 8.04638H151.101L151.024 5.9029H149.858C149.936 6.83913 149.962 7.65217 149.962 8.73623V17.729Z" fill="white"/>
<path d="M171.588 10.2884C171.588 8.1942 170.888 5.63188 167.289 5.63188C166.176 5.63188 164.777 5.92754 163.638 6.64203L164.026 7.50435C164.933 6.88841 166.072 6.61739 167.16 6.61739C170.112 6.59275 170.345 8.93333 170.345 10.0913V10.4116C165.269 10.3623 162.758 12.013 162.758 14.7478C162.758 16.3246 163.897 18 166.409 18C168.403 18 169.775 16.9406 170.397 16.029H170.448L170.63 17.729H171.769C171.614 16.8174 171.588 15.8565 171.588 14.9203V10.2884ZM170.345 13.9348C170.345 14.1319 170.319 14.4029 170.215 14.6493C169.801 15.8072 168.61 17.0145 166.538 17.0145C165.243 17.0145 164.052 16.2507 164.052 14.5507C164.052 11.7174 167.626 11.3232 170.345 11.3971V13.9348Z" fill="white"/>
<path d="M174.646 17.1623C175.475 17.6551 176.614 17.9754 177.805 17.9754C180.343 17.9754 182 16.6203 182 14.6C182 12.8014 180.809 11.8406 178.789 11.1014C177.106 10.4362 176.225 9.8942 176.225 8.66232C176.225 7.57826 177.054 6.61739 178.634 6.61739C179.877 6.61739 180.679 7.03623 181.12 7.33188L181.586 6.37101C180.964 5.95217 179.98 5.63188 178.841 5.63188C176.433 5.63188 175.008 7.13478 175.008 8.83478C175.008 10.2638 176.122 11.3232 178.168 12.0623C179.954 12.7522 180.783 13.442 180.783 14.7478C180.783 15.9797 179.851 16.9899 177.883 16.9899C176.769 16.9899 175.759 16.571 175.086 16.1768L174.646 17.1623Z" fill="white"/>
</svg>
