<?xml version="1.0" standalone="no"?>
<!DOCTYPE svg PUBLIC "-//W3C//DTD SVG 1.1//EN" "http://www.w3.org/Graphics/SVG/1.1/DTD/svg11.dtd">
<svg xmlns="http://www.w3.org/2000/svg">
<metadata>Generated by Fontastic.me</metadata>
<defs>
<font id="ucam-icons" horiz-adv-x="512">
<font-face font-family="ucam-icons" units-per-em="512" ascent="480" descent="-32"/>
<missing-glyph horiz-adv-x="512" />

<glyph glyph-name="google" unicode="&#100;" d="M508 287l-64 0 0 62-32 0 0-63-63 0 0-32 63 0 0-64 32 0 0 64 64 0z m-349-64l90 0c-17-50-72-76-121-59-50 17-76 72-59 122 14 37 50 63 90 63 22 0 45-8 62-23l41 48c-28 26-65 39-103 39-88 0-159-71-159-159 0-88 71-159 159-159 88 0 159 71 159 159l0 32-159 0z"/>
<glyph glyph-name="icon-rounded-flag-eng-01" unicode="&#101;" d="M181 11c-42 13-79 37-108 69l108 89z m153 490c41-13 80-37 110-70l-110-83z m33-172l99 75c18-23 29-48 37-75z m-112-329c-15 0-29 1-43 4l0 197c0 9-7 17-17 17l-194 0c-1 11-2 22-2 34 0 14 1 28 2 42l194 0c10 0 17 8 17 17l0 197c14 3 28 4 43 4l4 0c13 0 27-1 40-4l0-197c0-9 7-17 17-17l193 0c2-12 3-27 3-41 0-11-1-24-3-35l-193 0c-10 0-17-8-17-17l0-197c-12-3-26-4-44-4z m-207 107c-17 24-30 49-38 76l131 0z m-38 222c7 25 18 49 34 71l95-71z m54 98c31 34 70 59 112 72l0-158z m297-244l140 0c-6-19-15-38-25-56l0-2c-4-8-10-17-15-24z m-30-19l104-87c-20-20-41-36-65-49l-2 0c-11-5-24-11-37-15z"/>
<glyph glyph-name="youtube" unicode="&#102;" d="M203 188l0 144 138-73z m302 169c0 0-5 36-20 52-13 14-32 21-51 21-71 6-178 6-178 6 0 0-107 0-179-6-19 0-38-7-51-21-16-16-21-52-21-52-3-27-5-55-5-82l0-40c0-28 2-55 5-82 0 0 6-36 21-52 20-20 45-19 57-21 41-5 173-6 173-6 0 0 108 0 179 6 19 0 38 7 51 21 15 16 21 52 21 52 3 27 4 55 5 82l0 40c-1 27-3 55-7 82z"/>
<glyph glyph-name="diploma-empty" unicode="&#110;" d="M0 461l0-410 512 0 0 410z m478-376l-444 0 0 342 444 0z m-19 321l-404 0 0-300 404 0z m-34-266l-336 0 0 232 336 0z"/>
<glyph glyph-name="insurance" unicode="&#65;" d="M418 415c-48 0-116 13-153 51-4 3-9 3-12 0-38-38-106-51-154-51-5 0-10-5-10-11l0-177c0-67 95-164 165-186 2 0 4 0 5 0 72 24 166 119 166 186l0 177c3 6-2 11-7 11z m-20-188c0-44-74-130-135-155-2-2-5-2-7 0-63 25-137 111-137 155l0 147c0 5 4 8 9 8 44 5 87 21 125 45 3 1 6 1 10 0 37-24 80-40 124-45 6 0 9-5 9-8l0-147z m-69-39l-141 0c-12 0-21 10-21 20 0 33 17 62 43 79-5 10-9 20-9 30 0 16 7 29 19 40 12 10 26 15 41 15 15 0 29-7 39-19 11-12 16-25 16-41 0-8-4-18-9-25 28-17 43-46 43-79 2-10-9-20-21-20z m-138 25l135 0c-2 26-17 50-43 60l-18 7 13 14c7 5 10 13 10 22 0 8-3 17-8 24-12 13-33 13-46 1-14-12-14-32-2-46 0 0 2-1 2-1l15-14-19-7c-22-10-37-34-39-60z"/>
<glyph glyph-name="artboard-1-copy-10-copia-4-16" unicode="&#65;" d="M418 415c-48 0-116 13-153 51-4 3-9 3-12 0-38-38-106-51-154-51-5 0-10-5-10-11l0-177c0-67 95-164 165-186 2 0 4 0 5 0 72 24 166 119 166 186l0 177c3 6-2 11-7 11z m-20-188c0-44-74-130-135-155-2-2-5-2-7 0-63 25-137 111-137 155l0 147c0 5 4 8 9 8 44 5 87 21 125 45 3 1 6 1 10 0 37-24 80-40 124-45 6 0 9-5 9-8l0-147z m-69-39l-141 0c-12 0-21 10-21 20 0 33 17 62 43 79-5 10-9 20-9 30 0 16 7 29 19 40 12 10 26 15 41 15 15 0 29-7 39-19 11-12 16-25 16-41 0-8-4-18-9-25 28-17 43-46 43-79 2-10-9-20-21-20z m-138 25l135 0c-2 26-17 50-43 60l-18 7 13 14c7 5 10 13 10 22 0 8-3 17-8 24-12 13-33 13-46 1-14-12-14-32-2-46 0 0 2-1 2-1l15-14-19-7c-22-10-37-34-39-60z"/>
<glyph glyph-name="ucam-gsuite" unicode="&#73;" d="M4 298c5 0 10 0 13 0 2 0 7 0 10 0 2 0 2 0 2-1 0 0 0-1-1-1-1 0-1 0-2 0-2 0-3-2-3-5 0-2 0-5 0-18l0-12c0-12 2-17 6-21 4-3 8-3 11-3 4 0 8 1 11 4 5 5 5 13 5 22l0 10c0 13 0 16 0 18 0 3-1 4-3 5-1 0-2 0-3 0-1 0-2 1-2 1 0 1 1 1 2 1 5 0 10 0 10 0 1 0 7 0 10 0 2 0 2 0 2-1 0-1 0-1-1-1-1 0-1 0-2 0-3 0-3-2-4-5 0-2 0-5 0-18l0-9c0-9-1-19-8-26-6-5-13-6-19-6-5 0-16 0-23 6-4 4-7 10-7 23l0 12c0 13 0 15 0 18 0 2 0 4-1 5 0 0-1 0-1 0-1 1-3 1-3 1 0 0 0 1 1 1m83-57c-9 8-11 17-11 25 0 6 2 16 10 23 6 5 14 9 27 9 6 0 9-1 13-1 3 0 6-1 8-1 1-1 2-1 2-1 0-1-1-2-1-5 0-3 0-7 0-9 0-1 0-2-1-2-1 0-1 1-1 2 0 2-1 5-3 7-3 3-8 5-15 5-8 0-11-2-15-5-6-6-8-14-8-22 0-20 16-29 27-29 8 0 9 0 12 4 2 1 3 5 3 6 0 1 0 2 1 2 1 0 1-1 1-1 0-1-1-9-2-12 0-1-1-1-2-2-4-1-10-2-16-2-12 0-22 3-29 9z m146 55c1 2 2 2 2 2 1 0 2-1 3-2l23-47 23 47c1 1 2 2 3 2 1 0 2-1 2-3l8-52c1-5 2-7 4-8 3-1 3-1 4-1 1 0 2 0 2-1 0 0-1-1-3-1-2 0-14 1-17 1-2 0-3 0-3 1 0 0 1 0 1 1 1 0 1 1 1 3l-5 37-1 0-19-38c-2-4-2-4-4-4-1 0-2 1-3 4-2 3-9 16-10 19-1 1-6 12-9 18l1 0-5-33c0-2 0-3 0-4 0-2 1-2 3-3 1 0 2 0 3 0 1 0 1 0 1-1 0 0 0-1-2-1-3 0-7 1-9 1-1 0-5-1-8-1-1 0-2 1-2 1 0 1 1 1 2 1 0 0 1 0 2 0 3 1 3 4 3 7z m-67-45c-1 0-2 0-3-2l-4-8c-1-2-1-4-1-5 0-1 1-2 3-2l2 0c1 0 1 0 1-1 0-1-1-1-2-1-2 0-6 1-9 1-1 0-5-1-10-1-1 0-2 0-2 1 0 1 1 1 2 1 0 0 1 0 2 0 4 0 5 4 7 8l22 53c1 3 3 3 3 3 1 0 2-1 3-3 2-5 16-39 21-52 4-7 6-9 8-9 1 0 2 0 3 0 0 0 1 0 1-1 0-1-1-1-4-1-3 0-10 0-17 0-1 1-2 1-2 1 0 1 0 1 1 1 1 0 1 1 1 2l-6 13c0 0-2 2-3 2-1 0-16 0-17 0z m0 6c3 0 11 0 15 0 1 0 2 1 1 2l-7 21c0 0 0 0-1 0 0 0 0 0 0 0l-9-21c0-1 0-2 1-2z m337-25c-1 0-2 0-3 0-5 1-8 4-10 8-3 7-3 13 1 20 4 9 14 9 20 6 4-2 5-6 6-10 0-3 0-5 0-7 0-1 0-1-1-1-7 0-13 0-20 0-1 0-1 0-1-1 0-3 1-5 3-8 1-1 3-2 5-2 4 0 7 0 10 3 1 0 1 0 1 0 1-1 1-2 2-4 0 0 0 0 0-1-3-2-6-3-10-3 0 0 0 0-1-1-1 1-1 1-2 1z m0 21c2 0 5 0 7 0 1 0 1 0 1 1 0 1 0 2 0 2-1 3-3 6-6 6-3 1-6 0-8-3-1-1-2-3-2-5 0-1 0-1 1-1 2 0 5 0 7 0z m-71-21c-1 0-2 0-2 0-5 1-8 5-9 9 0 2 0 3 0 5 0 7 0 13 0 20 0 1 0 1 1 1 1 0 3 0 4 0 1 0 1 0 1-1 0-7 0-13 0-20 0-1 0-3 1-5 1-2 2-4 5-4 4 0 7 1 9 4 1 1 1 1 1 2 0 8 0 15 0 23 0 1 0 1 1 1 1 0 3 0 4 0 1 0 1 0 1-1 0-4 0-7 0-10 0-8 0-15 0-22 0-1 0-2-1-2-1 1-3 1-4 0-1 0-1 1-1 1 0 1 0 3 0 4-1 0-1 0-1 0-2-3-4-5-8-5 0 0 0 0 0 0-1 0-2 0-2 0z m47 0c0 0-1 0-1 0-3 1-6 3-6 7 0 1 0 2 0 3 0 6 0 12 0 19 0 1 0 1-2 1-1 0-2 0-3 0-1 0-1 0-1 1 0 1 0 2 0 3 0 1 0 1 1 1 1 0 3 0 4 0 0 0 1 0 1 1 0 2 0 4 0 6 0 1 0 1 1 1 1 0 3 0 4 0 1 0 1 0 1-1 0-2 0-4 0-6 0-1 0-1 1-1 2 0 3 0 5 0 0 0 1 0 1-1-1-1-1-2 0-3 0-1-1-1-1-1-2 0-3 0-5 0-1 0-1 0-1-1 0-7 0-13 0-20 0-3 2-5 5-4 1 0 1 0 1-1 0-1 0-1 1-2 0-1 0-1-1-2-1 0-2 0-3-1-1 1-1 1-2 1z m-80 0c-5 0-10 1-14 5-2 2-3 5-4 8 0 1 1 1 1 1 2 0 3 0 5 0 0 0 1 0 1-1 0-4 2-7 6-8 4-1 7-1 10 1 3 1 5 2 5 5 0 3-1 6-3 7-3 2-5 2-8 3-4 1-7 2-10 4-7 5-7 15 0 19 4 3 8 4 13 3 4 0 8-1 11-5 2-2 3-5 3-8 0 0 0-1-1-1-1 0-3 0-4 0-1 0-1 0-1 1 0 5-3 8-8 8-3 1-5 1-7 0-4-2-6-5-5-9 1-2 2-3 4-4 2-1 5-2 8-3 3-1 7-2 10-4 6-5 7-16-3-20-2-2-5-2-9-2z m-74 35c4 7 9 11 16 13 8 2 15 0 21-5 1-1 1-1 0-2-1-2-3-3-5-5-1-1-1-1-1 0-7 5-19 3-22-7 0 0-1 0-1 0-2 2-5 4-8 6z m38-29c-3-3-7-5-11-6-8-1-16 1-22 7-2 1-4 4-5 6 3 2 6 4 8 7 1-3 3-6 5-7 5-4 11-4 16-1 1 0 1 0 1 0 0 0 1 0 1-1 2-1 5-3 7-5z m0 0c-2 2-5 4-7 5 0 1-1 1-1 1 2 1 4 3 5 6 0 1 0 1-1 1-4 0-7 0-11 0-1 0-1 0-1 1 0 3 0 5 0 8 0 0 0 1 1 1 7 0 14 0 21 0 1 0 1 0 1-1 1-8-1-16-7-22 0 0 0 0 0 0z m93 12c0 5 0 10 0 16 0 1 0 1 1 1 2 0 3 0 5 0 0 0 1 0 1-1 0-11 0-22 0-33 0 0-1-1-1-1-2 0-3 0-5 0-1 0-1 1-1 1 0 6 0 11 0 17z m-123 2c-2-3-5-5-8-7-3 8-3 15 0 22 3-2 6-4 8-6-1-3 0-6 0-9z m126 21c-2 0-3 2-3 4 0 2 1 3 3 3 2 0 3-1 3-3 0-2-1-4-3-4z"/>
<glyph glyph-name="check-simple" unicode="&#41;" d="M192 166l-90 90-29-30 119-119 256 256-30 30z"/>
<glyph glyph-name="cap" unicode="&#76;" d="M256 448l-235-128 86-47 0-128 149-81 149 81 0 128 43 24 0-148 43 0 0 171z m145-128l-145-79-145 79 145 79z m-38-149l-107-58-107 58 0 79 107-58 107 58z"/>
<glyph glyph-name="phone" unicode="&#99;" d="M140 405c1-19 4-37 9-55l-25-26c-9 26-15 53-17 81l33 0m210-256c18-5 37-8 55-10l0-31c-28 1-55 7-81 16l26 25m-190 299l-75 0c-11 0-21-10-21-21 0-201 162-363 363-363 11 0 21 10 21 21l0 75c0 12-10 21-21 21-27 0-53 4-76 12-3 1-5 1-7 1-6 0-11-2-15-6l-47-47c-61 31-110 80-141 141l47 47c6 6 8 14 5 22-7 23-12 49-12 76 0 11-9 21-21 21z"/>
<glyph glyph-name="exit" unicode="&#104;" d="M215 179l30-30 107 107-107 107-30-30 55-56-206 0 0-42 206 0z m190 269l-298 0c-24 0-43-19-43-43l0-85 43 0 0 85 298 0 0-298-298 0 0 85-43 0 0-85c0-24 19-43 43-43l298 0c24 0 43 19 43 43l0 298c0 24-19 43-43 43z"/>
<glyph glyph-name="euro" unicode="&#105;" d="M320 117c-54 0-100 31-123 75l123 0 0 43-137 0c-1 7-2 14-2 21 0 7 1 14 2 21l137 0 0 43-123 0c23 44 70 75 123 75 34 0 66-13 90-34l38 38c-34 30-79 49-128 49-84 0-154-54-181-128l-75 0 0-43 65 0c-1-7-1-14-1-21 0-7 0-14 1-21l-65 0 0-43 75 0c27-74 97-128 181-128 49 0 94 19 128 49l-38 38c-24-21-55-34-90-34z"/>
<glyph glyph-name="email" unicode="&#106;" d="M427 427l-342 0c-23 0-42-20-42-43l0-256c0-23 19-43 42-43l342 0c23 0 42 20 42 43l0 256c0 23-19 43-42 43z m0-299l-342 0 0 213 171-106 171 106z m-171 149l-171 107 342 0z"/>
<glyph glyph-name="edit" unicode="&#107;" d="M64 144l0-80 80 0 236 236-80 80z m62-37l-19 0 0 19 193 194 20-20z m316 285l-50 50c-4 4-10 6-15 6-6 0-11-2-15-6l-39-39 80-80 39 39c8 8 8 22 0 30z"/>
<glyph glyph-name="documents" unicode="&#108;" d="M171 171l170 0 0-43-170 0z m0 85l170 0 0-43-170 0z m128 213l-171 0c-23 0-43-19-43-42l0-342c0-23 19-42 43-42l256 0c23 0 43 19 43 42l0 256z m85-384l-256 0 0 342 149 0 0-107 107 0z"/>
<glyph glyph-name="check" unicode="&#109;" d="M405 448l-298 0c-24 0-43-19-43-43l0-298c0-24 19-43 43-43l298 0c24 0 43 19 43 43l0 298c0 24-19 43-43 43z m0-341l-298 0 0 298 298 0z m-21 213l-30 30-141-140-55 55-30-31 85-85z"/>
<glyph glyph-name="blog" unicode="&#112;" d="M178 132c0-26-20-47-46-47-26 0-47 21-47 47 0 26 21 46 47 46 26 0 46-20 46-46z m-93 285l0-60c150 0 272-122 272-272l60 0c0 184-148 332-332 332z m0-120l0-61c84 0 151-67 151-151l61 0c0 117-95 212-212 212z"/>
<glyph glyph-name="arrow-left-right" unicode="&#98;" d="M469 341l-85 86 0-64-320 0 0-43 320 0 0-64z m-426-170l85-86 0 64 320 0 0 43-320 0 0 64z"/>
<glyph glyph-name="download" unicode="&#97;" d="M405 256l0-149-298 0 0 149-43 0 0-149c0-24 19-43 43-43l298 0c24 0 43 19 43 43l0 149z m-128-14l56 55 30-30-107-107-107 107 30 30 56-55 0 206 42 0z"/>
<glyph glyph-name="financial" unicode="&#119;" d="M256 469c-118 0-213-95-213-213 0-118 95-213 213-213 118 0 213 95 213 213 0 118-95 213-213 213z m169-192l-148 0 0 148c77-9 139-71 148-148z m-340-21c0 87 66 159 150 169l0-338c-84 10-150 82-150 169z m192-169l0 148 148 0c-9-77-71-139-148-148z"/>
<glyph glyph-name="ajustes" unicode="&#121;" d="M415 235c0 7 1 14 1 21 0 7-1 14-1 21l45 35c4 3 5 9 2 14l-43 74c-2 3-5 5-9 5-1 0-3 0-4-1l-53-21c-11 8-23 16-36 21l-8 56c-1 5-5 9-10 9l-86 0c-5 0-9-4-10-9l-8-56c-13-5-25-13-36-21l-53 21c-2 1-3 1-4 1-4 0-7-2-9-5l-43-74c-3-5-2-11 2-14l45-35c0-7-1-14-1-21 0-7 1-14 1-21l-45-35c-4-3-5-9-2-14l43-74c2-3 5-5 9-5 1 0 3 0 4 1l53 21c11-8 23-16 36-21l8-56c1-5 5-9 10-9l86 0c5 0 9 4 10 9l8 56c13 5 25 13 36 21l53-21c2-1 3-1 4-1 4 0 7 2 9 5l43 74c3 5 2 11-2 14z m-43 37c1-7 1-12 1-16 0-4 0-9-1-16l-3-24 19-15 23-18-15-25-27 11-22 8-19-14c-9-7-18-12-27-16l-22-9-4-24-4-29-30 0-4 29-3 24-23 9c-9 4-18 9-26 16l-20 14-22-9-27-11-15 26 23 18 19 15-3 24c-1 7-1 12-1 16 0 4 0 9 1 16l3 24-19 15-23 18 15 25 27-11 22-8 19 14c9 7 18 12 27 16l22 9 4 24 4 29 30 0 4-29 3-24 23-9c9-4 18-9 26-16l19-14 23 9 27 11 15-26-23-18-19-15z m-116 69c-47 0-85-38-85-85 0-47 38-85 85-85 47 0 85 38 85 85 0 47-38 85-85 85z m0-128c-23 0-43 20-43 43 0 23 20 43 43 43 23 0 43-20 43-43 0-23-20-43-43-43z"/>
<glyph glyph-name="lupa" unicode="&#122;" d="M331 213l-17 0-6 6c21 24 33 56 33 90 0 77-62 139-138 139-77 0-139-62-139-139 0-76 62-138 139-138 34 0 66 12 90 33l6-6 0-17 106-106 32 32z m-128 0c-53 0-96 43-96 96 0 53 43 96 96 96 53 0 96-43 96-96 0-53-43-96-96-96z"/>
<glyph glyph-name="bank" unicode="&#66;" d="M139 299l-43 0 0-150 43 0z m128 0l-43 0 0-150 43 0z m181-192l-405 0 0-43 405 0z m-53 192l-43 0 0-150 43 0z m-150 143l111-58-222 0 111 58m0 49l-202-107 0-43 405 0 0 43z"/>
<glyph glyph-name="question" unicode="&#67;" d="M235 9l0 77c-107 5-192 94-192 202 0 112 91 203 202 203 112 0 203-91 203-203 0-106-73-212-183-265z m10 439c-88 0-160-72-160-160 0-88 72-160 160-160l32 0 0-49c78 49 128 130 128 209 0 88-71 160-160 160z m-21-245l43 0 0-43-43 0z m43 32l-43 0c0 69 64 64 64 106 0 24-19 43-43 43-23 0-42-19-42-43l-43 0c0 47 38 86 85 86 47 0 86-39 86-86 0-53-64-58-64-106z"/>
<glyph glyph-name="desktop" unicode="&#69;" d="M448 469l-384 0c-23 0-43-19-43-42l0-256c0-24 20-43 43-43l149 0 0-43-42 0 0-42 170 0 0 42-42 0 0 43 149 0c23 0 43 19 43 43l0 256c0 23-20 42-43 42z m0-298l-384 0 0 256 384 0z"/>
<glyph glyph-name="briefcase" unicode="&#70;" d="M427 363l-86 0 0 42-42 43-86 0-42-43 0-42-86 0c-23 0-42-20-42-43l0-107c0-16 8-29 21-37l0-69c0-24 19-43 43-43l298 0c24 0 43 19 43 43l0 70c13 7 21 21 21 36l0 107c0 23-19 43-42 43z m-214 42l86 0 0-42-86 0z m-128-85l342 0 0-107-107 0 0 64-128 0 0-64-107 0z m192-128l-42 0 0 43 42 0z m128-85l-298 0 0 64 85 0 0-22 128 0 0 22 85 0z"/>
<glyph glyph-name="speech-bubble" unicode="&#71;" d="M320 427l0-150-210 0-25-25 0 175 235 0m21 42l-277 0c-12 0-21-9-21-21l0-299 85 86 213 0c12 0 22 9 22 21l0 192c0 12-10 21-22 21z m107-85l-43 0 0-192-277 0 0-43c0-11 10-21 21-21l235 0 85-85 0 320c0 11-9 21-21 21z"/>
<glyph glyph-name="calendar-1" unicode="&#72;" d="M405 448l-21 0 0 43-43 0 0-43-170 0 0 43-43 0 0-43-21 0c-24 0-43-19-43-43l0-298c0-24 19-43 43-43l298 0c24 0 43 19 43 43l0 298c0 24-19 43-43 43z m0-341l-298 0 0 213 298 0z m-298 256l0 42 298 0 0-42z m42-86l214 0 0-42-214 0z m0-85l150 0 0-43-150 0z"/>
<glyph glyph-name="world" unicode="&#103;" d="M256 469c-118 0-213-95-213-213 0-118 95-213 213-213 118 0 213 95 213 213 0 118-95 213-213 213z m148-128l-63 0c-7 27-17 53-30 76 40-13 72-40 93-76z m-148 85c18-26 32-54 41-85l-82 0c9 31 23 59 41 85z m-165-213c-4 14-6 28-6 43 0 15 2 29 6 43l72 0c-2-14-3-28-3-43 0-15 1-29 3-43z m17-42l63 0c7-27 17-53 30-76-40 13-72 40-93 76z m63 170l-63 0c21 36 53 63 93 76-13-23-23-49-30-76z m85-255c-18 26-32 54-41 85l82 0c-9-31-23-59-41-85z m50 127l-100 0c-2 14-3 28-3 43 0 15 1 29 3 43l100 0c2-14 3-28 3-43 0-15-1-29-3-43z m5-118c13 23 23 49 30 76l63 0c-21-36-53-63-93-76z m38 118c2 14 3 28 3 43 0 15-1 29-3 43l72 0c4-14 6-28 6-43 0-15-2-29-6-43z"/>
<glyph glyph-name="artboard-1-copy-10-copia" unicode="&#77;" d="M235 363l42 0 0-43-42 0z m0-86l42 0 0-128-42 0z m21 192c-118 0-213-95-213-213 0-118 95-213 213-213 118 0 213 95 213 213 0 118-95 213-213 213z m0-384c-94 0-171 77-171 171 0 94 77 171 171 171 94 0 171-77 171-171 0-94-77-171-171-171z"/>
<glyph glyph-name="iconos-web-fp-idioma" unicode="&#120;" d="M275 191l-55 53 1 1c37 41 64 89 79 139l63 0 0 43-150 0 0 42-42 0 0-42-150 0 0-43 239 0c-15-41-37-80-68-114-20 22-36 46-49 71l-43 0c16-34 37-67 64-97l-109-107 30-30 107 106 66-66z m120 108l-43 0-96-256 43 0 24 64 101 0 24-64 43 0z m-56-150l34 93 35-93z"/>
<glyph glyph-name="iconos-web-fp-duracion" unicode="&#113;" d="M235 341l0-106 90-54 17 27-75 45 0 88z m213-42l0 149-56-56c-35 34-83 56-136 56-106 0-192-86-192-192 0-106 86-192 192-192 106 0 192 86 192 192l-43 0c0-82-67-149-149-149-82 0-149 67-149 149 0 82 67 149 149 149 41 0 79-17 106-43l-63-63z"/>
<glyph glyph-name="pre-registration" unicode="&#78;" d="M427 469l-342 0c-23 0-42-19-42-42l0-384 85 85 299 0c23 0 42 19 42 43l0 256c0 23-19 42-42 42z m0-298l-317 0-12-13-13-12 0 281 342 0z m-203 42l160 0 0 43-117 0z m82 126c5 4 5 10 0 15l-37 37c-5 5-11 5-16 0l-125-125 0-53 53 0z"/>
<glyph glyph-name="learning" unicode="&#114;" d="M256 320c47 0 85 38 85 85 0 47-38 86-85 86-47 0-85-39-85-86 0-47 38-85 85-85z m0 128c23 0 43-19 43-43 0-23-20-42-43-42-23 0-43 19-43 42 0 24 20 43 43 43z m0-182c-50 47-118 75-192 75l0-234c74 0 142-29 192-76 50 47 118 76 192 76l0 234c-74 0-142-28-192-75z m149-119c-54-8-105-28-149-61-44 33-95 54-149 61l0 148c44-8 86-29 120-60l29-28 29 27c34 32 76 53 120 61z"/>
<glyph glyph-name="student" unicode="&#117;" d="M192 219c-50 0-149-25-149-75l0-37 298 0 0 37c0 50-99 75-149 75z m-99-70c18 13 61 27 99 27 38 0 81-14 99-27z m99 107c41 0 75 33 75 75 0 41-34 74-75 74-41 0-75-33-75-74 0-42 34-75 75-75z m0 107c18 0 32-15 32-32 0-18-14-32-32-32-18 0-32 14-32 32 0 17 14 32 32 32z m150-146c25-18 42-41 42-73l0-37 85 0 0 37c0 43-74 68-127 73z m-22 39c41 0 75 33 75 75 0 41-34 74-75 74-12 0-22-2-32-7 13-19 21-42 21-67 0-25-8-49-21-68 10-4 20-7 32-7z"/>
<glyph glyph-name="duracion" unicode="&#118;" d="M128 469l0-128 0 0 0 0 85-85-85-85 0-1 0 0 0-127 256 0 0 127 0 0 0 1-85 85 85 85 0 0 0 0 0 128z m213-309l0-75-170 0 0 75 85 85z m-85 107l-85 85 0 75 170 0 0-75z"/>
<glyph glyph-name="tranvia" unicode="&#79;" d="M277 405l16 32 70 0 0 32-214 0 0-32 102 0-16-32c-67-2-128-15-128-74l0-182c0-32 23-58 54-63l-33-33 0-10 43 0 42 42 86 0 42-42 43 0 0 10-33 33 0 0 0 0c31 5 54 31 54 63l0 182c0 59-61 72-128 74z m-42-42l42 0c58-2 77-13 83-22l-208 0c6 9 25 20 83 22z m-4-234l-66 0c-9 2-16 11-16 20l0 22 83 0c-5-6-8-13-8-22 0-7 3-14 7-20z m132 20c0-9-7-18-16-20l-66 0c4 6 7 13 7 20 0 9-3 16-8 22l83 0z m0 64l-214 0 0 86 214 0z"/>
<glyph glyph-name="bus" unicode="&#80;" d="M256 469c-94 0-171-10-171-85l0-213c0-19 9-36 22-48l0-38c0-11 9-21 21-21l21 0c12 0 22 10 22 21l0 22 170 0 0-22c0-11 10-21 22-21l21 0c12 0 21 10 21 21l0 38c13 12 22 29 22 48l0 213c0 75-77 85-171 85z m121-63l-242 0c12 11 42 21 121 21 79 0 109-10 121-21z m7-43l0-64-256 0 0 64z m-7-208l-6-6-230 0-6 6c-3 2-7 8-7 16l0 85 256 0 0-85c0-8-4-14-7-16z m-164 48c0-18-14-32-32-32-17 0-32 14-32 32 0 17 15 32 32 32 18 0 32-15 32-32z m150 0c0-18-15-32-32-32-18 0-32 14-32 32 0 17 14 32 32 32 17 0 32-15 32-32z"/>
<glyph glyph-name="launch" unicode="&#81;" d="M405 107l-298 0 0 298 149 0 0 43-149 0c-24 0-43-19-43-43l0-298c0-24 19-43 43-43l298 0c24 0 43 19 43 43l0 149-43 0z m-106 341l0-43 76 0-209-209 30-30 209 209 0-76 43 0 0 149z"/>
<glyph glyph-name="iconos-web-fp-copia" unicode="&#82;" d="M64 469l171 0 0-42-171 0z m64-192l43 0 0 86 64 0 0 42-171 0 0-42 64 0z m137-196l166 166 30-30-166-166z m76 122c0-18-14-32-32-32-17 0-32 14-32 32 0 17 15 32 32 32 18 0 32-15 32-32z m107-107c0-18-14-32-32-32-18 0-32 14-32 32 0 18 14 32 32 32 18 0 32-14 32-32z m-117 181c29 0 53 24 53 54l0 96 64 0 0 42-85 0 0-96c-9 7-20 11-32 11-30 0-54-24-54-53 0-30 24-54 54-54z m-123-105l-30-31-15 16 7 7c21 21 21 55 0 76-10 10-24 15-38 15-13 0-27-5-37-15-21-21-21-55 0-76l7-7-23-23c-21-21-21-55 0-76 11-10 25-15 38-15 14 0 28 5 38 15l23 23 30-30 30 30-30 30 30 30z m-83 37c2 3 5 3 7 3 2 0 5 0 8-3 4-4 4-11 0-15l-8-8-7 8c-4 4-4 11 0 15z m0-120c-3-3-6-4-8-4-2 0-5 1-7 4-4 4-4 10 0 15l22 22 16-15z"/>
<glyph glyph-name="bulb" unicode="&#115;" d="M356 232c29-20 49-47 49-83l0-64 86 0 0 64c0 47-76 74-135 83z m-36 24c47 0 85 38 85 85 0 47-38 86-85 86-10 0-19-2-28-5 17-22 28-50 28-81 0-30-11-58-28-80 9-3 18-5 28-5z m-128 0c47 0 85 38 85 85 0 47-38 86-85 86-47 0-85-39-85-86 0-47 38-85 85-85z m0 128c23 0 43-19 43-43 0-23-20-42-43-42-23 0-43 19-43 42 0 24 20 43 43 43z m0-149c-57 0-171-29-171-86l0-64 342 0 0 64c0 57-114 86-171 86z m128-107l-256 0 0 21c4 15 70 43 128 43 58 0 124-28 128-43z"/>
<glyph glyph-name="clipboard" unicode="&#75;" d="M235 256c47 0 85 38 85 85 0 47-38 86-85 86-47 0-86-39-86-86 0-47 39-85 86-85z m0 128c23 0 42-19 42-43 0-23-19-42-42-42-24 0-43 19-43 42 0 24 19 43 43 43z m-128-256c4 13 54 36 105 41l44 43c-8 1-15 1-21 1-57 0-171-28-171-85l0-43 192 0-43 43z m332 117l-109-110-44 44-30-30 74-74 139 140z"/>
<glyph glyph-name="facebook" unicode="&#116;" d="M192 149c0 32 0 66 0 98 0 9-2 11-11 11-10 0-21 0-32 0-4 0-6 2-6 7 0 21 0 40 0 61 0 5 2 7 6 7 11 0 22 0 32 0 7 0 9 2 9 8 0 15 0 28 0 43 0 45 28 79 72 85 7 2 13 2 22 2 23 0 49 0 72 0 5 0 9 0 9-6 0-19 0-38 0-58 0-6-2-6-9-6-13 0-27 0-40 0-19 0-28-8-28-28 0-10 0-21 0-34 0-6 2-8 9-8 19 0 40 0 59 0 9 0 9-2 9-11-2-17-4-36-7-55 0-9-4-11-10-11-15 0-30 0-45 0-15 0-15 0-15-15 0-64 0-128 0-192 0-11 0-11-13-11-25 0-51 0-77 0-6 0-8 2-8 9 2 38 2 70 2 104z"/>
<glyph glyph-name="instagram" unicode="&#83;" d="M60 169c0 57 0 115 0 174 0 3 0 3 0 5 6 59 57 104 117 104 53 0 105 0 158 0 51 0 98-36 113-85 2-9 4-15 4-24 0-57 0-115 0-174 0-3 0-3 0-5-6-49-42-89-89-102-7-2-13-2-20-4-57 0-115 0-174 0-3 0-3 0-5 0-49 6-87 40-102 87 0 9 0 17-2 24z m360 87c0 26 0 51 0 77 0 49-38 87-87 87-51 0-100 0-152 0-6 0-10 0-17-2-42-8-70-43-70-87 0-49 0-101 0-150 0-51 38-89 89-89 50 0 101 0 150 0 51 0 89 38 89 89-2 26-2 49-2 75z m-164 98c53 0 98-45 98-98 0-53-45-98-98-98-53 0-98 45-98 98 0 55 45 98 98 98z m66-98c0 36-30 66-66 66-36 0-66-30-66-66 0-36 30-66 66-66 36 0 66 30 66 66z m36 81c-12 0-21 9-21 21 0 13 11 22 21 22 13 0 22-11 22-22 0-10-9-21-22-21z"/>
<glyph glyph-name="diploma" unicode="&#84;" d="M384 469l-256 0c-23 0-43-19-43-42l0-342c0-23 20-42 43-42l256 0c23 0 43 19 43 42l0 342c0 23-20 42-43 42z m-192-42l43 0 0-107-22 16-21-16z m192-342l-256 0 0 342 21 0 0-192 64 48 64-48 0 192 107 0z"/>
<glyph glyph-name="noticias" unicode="&#85;" d="M427 469l-342 0c-23 0-42-19-42-42l0-384 85 85 299 0c23 0 42 19 42 43l0 256c0 23-19 42-42 42z m0-298l-317 0-12-13-13-12 0 281 342 0z m-299 85l43 0 0-43-43 0z m0 64l43 0 0-43-43 0z m0 64l43 0 0-43-43 0z m85-128l107 0 0-43-107 0z m0 64l171 0 0-43-171 0z m0 64l171 0 0-43-171 0z"/>
<glyph glyph-name="twitter" unicode="&#86;" d="M169 149c-45 5-75 26-90 69 15-3 28-5 43 0-47 15-73 44-75 93 13-4 26-8 38-10 0 0 0 2 2 2-19 15-32 32-36 55-4 24-2 45 11 67 51-58 117-90 194-96-4 21-2 42 9 61 25 56 102 71 147 30 6-4 10-6 19-4 17 6 32 11 47 17-7-19-19-34-39-47 18 2 35 7 52 15 0 0 0 0 2-2-7-9-13-17-22-26-6-6-12-12-21-19-4-4-6-8-6-13 0-34-5-66-17-96-24-64-66-111-124-145-43-23-88-34-134-32-52 0-99 15-141 43-2 0-2 2-5 2 0 0 0 0 0 2 52-8 101 4 146 34z"/>
<glyph glyph-name="play" unicode="&#111;" d="M171 405l0-298 234 149z"/>
<glyph glyph-name="play-artboard" unicode="&#68;" d="M213 160l128 96-128 96z m43 309c-118 0-213-95-213-213 0-118 95-213 213-213 118 0 213 95 213 213 0 118-95 213-213 213z m0-384c-94 0-171 77-171 171 0 94 77 171 171 171 94 0 171-77 171-171 0-94-77-171-171-171z"/>
<glyph glyph-name="memory" unicode="&#74;" d="M320 320l-128 0 0-128 128 0z m-43-85l-42 0 0 42 42 0z m171 42l0 43-43 0 0 43c0 23-19 42-42 42l-43 0 0 43-43 0 0-43-42 0 0 43-43 0 0-43-43 0c-23 0-42-19-42-42l0-43-43 0 0-43 43 0 0-42-43 0 0-43 43 0 0-43c0-23 19-42 42-42l43 0 0-43 43 0 0 43 42 0 0-43 43 0 0 43 43 0c23 0 42 19 42 42l0 43 43 0 0 43-43 0 0 42z m-85-128l-214 0 0 214 214 0z"/>
<glyph glyph-name="star-shield" unicode="&#87;" d="M459 284c0-127-87-246-203-274-117 28-204 147-204 274l0 137 204 91 203-91z m-203-229c84 23 158 125 158 224l0 112-158 71-159-71 0-112c0-99 74-201 159-224z m68 114l-69 43-70-43 19 80-61 54 80 7 32 75 31-75 81-7-61-54z"/>
<glyph glyph-name="vector-6" unicode="&#89;" d="M209 278c-9-15-16-31-20-48-66-5-130-36-130-51l0-27 130 0c4-16 11-32 20-46l-196 0 0 73c0 66 130 99 196 99z m0 221c26 0 50-11 69-29 18-19 28-44 28-70 0-22-7-43-20-59-21-8-40-21-55-36l-22-3c-26 0-51 10-70 29-18 18-28 43-28 69 0 26 10 51 28 70 19 18 44 29 70 29z m0-47c-14 0-27-6-37-15-9-10-15-23-15-37 0-13 6-26 15-36 10-10 23-15 37-15 13 0 26 5 36 15 10 10 15 23 15 36 0 14-5 27-15 37-10 9-23 15-36 15z m134-150c61 0 110-49 110-110 0-22-6-42-17-59l76-76-34-34-77 75c-17-11-37-17-58-17-61 0-110 49-110 111 0 61 49 110 110 110z m0-49c-16 0-32-6-43-18-12-11-18-27-18-43 0-17 6-32 18-44 11-11 27-18 43-18 16 0 32 7 43 18 12 12 18 27 18 44 0 16-6 32-18 43-11 12-27 18-43 18z"/>
<glyph glyph-name="confirmation" unicode="&#88;" d="M322 461l28-47 7-13 15-2 53-13-6-55-1-14 10-11 36-43-36-43-10-11 1-14 6-55-53-13-15-2-7-13-28-47-48 22-14 6-14-6-48-22-28 47-7 13-15 2-53 13 6 56 1 14-9 11-36 43 36 43 9 11-1 14-6 55 53 13 15 3 7 12 28 47 48-22 14-5 14 5 48 21m16 44l-78-35-77 35-43-75-82-19 8-86-55-65 55-65-8-86 82-19 43-75 77 35 78-35 43 75 81 19-8 86 55 65-55 65 8 86-81 19z m-124-361l-91 94 32 32 59-60 150 154 32-33z"/>
<glyph glyph-name="list-big" unicode="&#90;" d="M64 448l384 0 0-107-384 0z m0-139l384 0 0-106-384 0z m0-138l384 0 0-107-384 0z"/>
<glyph glyph-name="grid" unicode="&#48;" d="M58 448l177 0 0-177-177 0z m0-207l177 0 0-177-177 0z m219 207l177 0 0-177-177 0z m0-207l177 0 0-177-177 0z"/>
<glyph glyph-name="list" unicode="&#49;" d="M64 448l384 0 0-51-384 0z m0-83l384 0 0-51-384 0z m0-83l384 0 0-52-384 0z m0-84l384 0 0-51-384 0z m0-83l384 0 0-51-384 0z"/>
<glyph glyph-name="spotify" unicode="&#50;" d="M256 448c105 0 192-83 192-192 0-107-83-190-190-192-107-2-194 83-194 190-2 107 85 192 192 194z m-28-102c-30 0-62-3-89-11-11-2-17-13-15-21 2-11 13-15 23-13 11 2 22 4 32 6 39 7 77 4 115-2 28-4 54-13 77-28 4-2 9-2 13-2 6 2 13 9 13 15 0 7-4 15-11 19-25 15-55 24-85 30-24 4-49 7-73 7z m0-67c-32 0-55-4-79-10-4-2-8-2-10-7-5-6-5-12 0-17 4-4 10-6 17-4 17 4 34 9 53 9 49 2 96-7 139-32 2-3 4-3 6-3 7 0 13 5 15 11 2 7 0 13-6 17-11 7-20 11-30 15-36 17-73 24-105 21z m-2-61c-23 0-49-3-72-9-5-2-9-6-9-11 0-8 6-15 15-12 21 4 45 8 66 8 26 0 49-4 73-13 10-4 19-8 27-12 7-5 15-3 17 4 5 6 3 13-4 17-8 4-19 11-30 15-25 8-53 13-83 13z"/>
<glyph glyph-name="linkedin" unicode="&#51;" d="M254 64c-51 0-103 0-154 0-19 0-34 13-38 30 0 2-2 6-2 11 0 102 0 204 0 307 0 21 17 40 40 40 103 0 205 0 307 0 24 0 41-17 41-40 0-103 0-205 0-307 0-24-17-41-41-41-51 0-102 0-153 0z m19 58c0 2 0 2 0 4 0 32 0 64 0 96 0 6 2 13 4 17 7 11 22 17 32 13 13-5 22-15 22-30 0-32 0-64 0-96 0-2 0-2 0-4 19 0 38 0 57 0 0 2 0 2 0 4 0 34 0 70 0 104 0 5 0 11-2 15-4 22-15 37-34 47-23 13-47 13-68-4-5-4-9-9-13-13 0 7 0 15 0 22-19 0-38 0-58 0 0-58 0-116 0-173 22-2 41-2 60-2z m-154 175c0-58 0-116 0-173 20 0 39 0 58 0 0 57 0 115 0 173-19 0-38 0-58 0z m64 68c0 19-14 34-34 34-21 0-36-15-36-34 0-19 15-34 34-34 19-2 36 15 36 34z"/>
<glyph glyph-name="room" unicode="&#52;" d="M256 469c-83 0-149-66-149-149 0-112 149-277 149-277 0 0 149 165 149 277 0 83-66 149-149 149z m-107-149c0 59 48 107 107 107 59 0 107-48 107-107 0-61-62-153-107-211-44 57-107 150-107 211z m160 0c0-29-24-53-53-53-29 0-53 24-53 53 0 29 24 53 53 53 29 0 53-24 53-53z"/>
<glyph glyph-name="perm-identity" unicode="&#53;" d="M256 384c23 0 43-19 43-43 0-23-20-42-43-42-23 0-43 19-43 42 0 24 20 43 43 43m0-192c58 0 124-28 128-43l0-21-256 0 0 21c4 15 70 43 128 43m0 235c-47 0-85-39-85-86 0-47 38-85 85-85 47 0 85 38 85 85 0 47-38 86-85 86z m0-192c-57 0-171-29-171-86l0-64 342 0 0 64c0 57-114 86-171 86z"/>
<glyph glyph-name="close" unicode="&#54;" d="M311 341l-55-55-55 55-30-30 55-55-55-55 30-30 55 55 55-55 30 30-55 55 55 55z m-55 128c-118 0-213-95-213-213 0-118 95-213 213-213 118 0 213 95 213 213 0 118-95 213-213 213z m0-384c-94 0-171 77-171 171 0 94 77 171 171 171 94 0 171-77 171-171 0-94-77-171-171-171z"/>
<glyph glyph-name="schedule-24px" unicode="&#55;" d="M256 469c-118 0-213-95-213-213 0-118 95-213 213-213 118 0 213 95 213 213 0 118-95 213-213 213z m0-384c-94 0-171 77-171 171 0 94 77 171 171 171 94 0 171-77 171-171 0-94-77-171-171-171z m11 278l-32 0 0-128 112-68 16 27-96 57z"/>
<glyph glyph-name="secretaria" unicode="&#56;" d="M448 251c0 117-91 197-192 197-100 0-192-78-192-198-13-7-21-21-21-37l0-42c0-24 19-43 42-43l22 0 0 130c0 83 66 149 149 149 83 0 149-66 149-149l0-151-170 0 0-43 170 0c24 0 43 19 43 43l0 26c13 6 21 19 21 35l0 49c0 15-8 28-21 34z m-235-16c0-12-9-22-21-22-12 0-21 10-21 22 0 11 9 21 21 21 12 0 21-10 21-21z m128 0c0-12-9-22-21-22-12 0-21 10-21 22 0 11 9 21 21 21 12 0 21-10 21-21z m43 42c-10 60-63 107-127 107-65 0-134-54-129-138 53 22 93 69 104 126 28-56 85-95 152-95z"/>
<glyph glyph-name="key" unicode="&#57;" d="M469 107l-128 0 0 85-57 0c-24-52-77-85-135-85-82 0-149 67-149 149 0 82 67 149 149 149 58 0 111-33 135-85l228 0 0-128-43 0z m-85 42l43 0 0 86 42 0 0 42-214 0-5 15c-15 42-56 71-101 71-59 0-106-48-106-107 0-59 47-107 106-107 45 0 86 29 101 71l5 15 129 0z m-235 43c-35 0-64 29-64 64 0 35 29 64 64 64 36 0 64-29 64-64 0-35-28-64-64-64z m0 85c-11 0-21-9-21-21 0-12 10-21 21-21 12 0 22 9 22 21 0 12-10 21-22 21z"/>
<glyph glyph-name="nube" unicode="&#33;" d="M256 384c56 0 104-40 115-95l6-32 33-2c33-2 59-30 59-63 0-35-28-64-64-64l-277 0c-47 0-85 38-85 85 0 44 32 81 76 85l22 2 11 21c20 39 60 63 104 63m0 43c-62 0-115-35-142-87-64-6-114-61-114-127 0-70 57-128 128-128l277 0c59 0 107 48 107 107 0 56-44 102-99 106-15 73-79 129-157 129z"/>
<glyph glyph-name="wifi" unicode="&#34;" d="M21 320l43-43c106 106 278 106 384 0l43 43c-130 129-340 129-470 0z m171-171l64-64 64 64c-35 36-93 36-128 0z m-85 86l42-43c59 59 155 59 214 0l42 43c-82 82-216 82-298 0z"/>
<glyph glyph-name="solicitudes" unicode="&#35;" d="M384 235l-15 0-42-43 41 0 37-43-298 0 38 43 43 0-42 43-18 0-64-64 0-86c0-23 19-42 42-42l299 0c24 0 43 19 43 42l0 86z m21-150l-298 0 0 22 298 0z m-163 107c8-9 22-9 30 0l136 135c8 9 8 22 0 30l-106 106c-8 8-21 8-30 0l-136-136c-8-8-8-22 0-30z m45 226l76-76-106-105-75 75z"/>
<glyph glyph-name="calendar-1-1" unicode="&#36;" d="M452 472l-24 0 0 40-40 0 0-40-264 0 0 40-40 0 0-40-24 0c-33 0-60-27-60-60l0-352c0-33 27-60 60-60l392 0c33 0 60 27 60 60l0 352c0 33-27 60-60 60z m20-412c0-11-9-20-20-20l-392 0c-11 0-20 9-20 20l0 264 432 0z m0 304l-432 0 0 48c0 11 9 20 20 20l24 0 0-40 40 0 0 40 264 0 0-40 40 0 0 40 24 0c11 0 20-9 20-20z m-396-82l40 0 0-40-40 0z m80 0l40 0 0-40-40 0z m80 0l40 0 0-40-40 0z m80 0l40 0 0-40-40 0z m80 0l40 0 0-40-40 0z m-320-80l40 0 0-40-40 0z m80 0l40 0 0-40-40 0z m80 0l40 0 0-40-40 0z m80 0l40 0 0-40-40 0z m-240-80l40 0 0-40-40 0z m80 0l40 0 0-40-40 0z m80 0l40 0 0-40-40 0z m80 0l40 0 0-40-40 0z m80 80l40 0 0-40-40 0z"/>
<glyph glyph-name="web-2" unicode="&#37;" d="M462 154l-1 0-43 23-18 10-57 30-32 17-52 28 14-51 4-12 18-68 8-27 25-88 25 36 21 31 60-76 36 28-50 63-11 13 75 31z m-206-90c-9 0-23 16-35 52-7 20-11 40-14 60l51 0-9 33-47 0c-1 18-2 37-2 56 0 20 0 38 2 56l107 0c1-18 2-36 2-56l0-5 34-18c0 8 0 15 0 23 0 19 0 38-3 56l107 0c10-36 10-75 0-112l-44 0 67-35c2 4 3 8 5 12 0 1 0 1 0 2 17 50 17 105 0 155 0 0 0 1 0 2-34 93-122 156-222 156-99 0-187-63-221-156 0-1 0-2 0-2-17-50-17-105 0-155 0-1 0-1 0-2 34-93 123-155 222-155 14 0 29 2 43 4l-16 58c-11-19-21-29-27-29z m180 292l-97 0c-4 36-15 72-31 105 56-15 102-53 128-105z m-216 59c12 37 27 53 36 53 8 0 23-16 35-53 6-19 11-39 14-59l-99 0c3 20 8 40 14 59z m-17 46c-16-33-26-69-31-105l-96 0c25 52 72 90 127 105z m-149-195c0 19 2 38 8 56l106 0c-1-18-2-37-2-56 0-18 0-37 2-55l-106 0c-5 18-8 37-8 55z m21-89l97 0c5-37 15-72 31-105-55 15-102 53-127 105z"/>
<glyph glyph-name="web-1" unicode="&#38;" d="M471 176l-163 69 63-165 27 49 47-49 23 22-47 49z m-314 139l8 43 23 0-17-76-22 0-11 38-12-38-21 0-17 75 21 0 7-43 13 43 16 0z m111 0l7 43 22 0-18-76-20 0-11 38-12-38-20 0-18 75 23 0 7-43 12 43 16 0z m110 0l8 43 21 0-18-76-20 0-10 38-13-38-19 0-18 75 21 0 8-43 12 43 15 0z m64-33l-24 0 0 19 24 0z m-153-59l-150 0c-50 0-91 41-91 92 0 51 41 92 91 92l235 0c45 0 84-34 90-79 7-45-21-88-64-101l33-13c46 26 68 80 54 132-14 51-61 86-114 86l-234 0c-65 0-118-52-118-117 0-65 53-117 118-117l160 0z"/>
<glyph glyph-name="handshake" unicode="&#39;" d="M463 326c27 27 15 58 0 73l-64 64c-27 27-58 15-73 0l-36-36-55 0c-41 0-64-22-76-46l-95-95 0-85-15-15c-27-27-15-58 0-73l64-64c11-12 24-16 35-16 16 0 29 8 38 16l57 58 77 0c36 0 55 22 61 44 24 7 38 25 43 43 33 9 45 40 45 62l0 64-12 0 6 6m-36-70c0-10-4-21-22-21l-21 0 0-22c0-9-4-21-21-21l-22 0 0-21c0-10-4-22-21-22l-94 0-70-70c-7-6-11-2-13 0l-64 64c-6 6-2 10 0 13l28 27 0 86 42 42 0-34c0-25 17-64 64-64 47 0 64 39 64 64l150 0 0-21m6 100l-36-36-162 0 0-43c0-9-4-21-22-21-17 0-21 12-21 21l0 64c0 10 4 43 43 43l72 0 49 49c7 6 11 2 13 0l64-64c6-6 2-10 0-13z"/>
</font>
</defs>
</svg>
